<svg xmlns="http://www.w3.org/2000/svg" x="0px" y="0px"
width="12" height="12"
viewBox="0 0 191 191"
style=" fill:##F7AEA7;"><g fill="none" fill-rule="nonzero" stroke="none" stroke-width="1" stroke-linecap="butt" stroke-linejoin="miter" stroke-miterlimit="10" stroke-dasharray="" stroke-dashoffset="0" font-family="none" font-weight="none" font-size="none" text-anchor="none" style="mix-blend-mode: normal"><path d="M0,191.98863v-191.98863h191.98863v191.98863z" fill="none"></path><g fill="#f7aea7"><g id="surface1"><path d="M132.23077,1.3774c-31.70898,0 -57.39183,14.17578 -57.39183,31.68029c0,17.50451 25.68284,31.68029 57.39183,31.68029c31.70898,0 57.39183,-14.17578 57.39183,-31.68029c0,-17.5045 -25.68284,-31.68029 -57.39183,-31.68029zM189.6226,42.46995c0,17.50451 -25.68284,31.68029 -57.39183,31.68029c-31.62289,0 -57.24835,-14.0323 -57.39183,-31.45072c0,6.65745 0,12.39663 0,12.39663c0,7.48963 4.79222,14.31926 12.6262,19.74279c7.94877,2.18089 15.00796,5.16526 20.89063,8.95313c7.28877,1.86523 15.32362,2.98438 23.875,2.98438c31.70898,0 57.39183,-14.17578 57.39183,-31.68029zM189.6226,64.50841c0,17.50451 -25.68284,31.68029 -57.39183,31.68029c-3.84525,0 -7.60442,-0.28696 -11.2488,-0.6887c2.89829,4.01743 4.907,8.4079 5.73918,13.08534c1.83654,0.11478 3.64438,0.22957 5.50962,0.22957c31.70898,0 57.39183,-14.17578 57.39183,-31.68029zM58.76923,82.1851c-31.70898,0 -57.39183,14.17578 -57.39183,31.68029c0,17.50451 25.68284,31.68029 57.39183,31.68029c31.70898,0 57.39183,-14.17578 57.39183,-31.68029c0,-17.5045 -25.68284,-31.68029 -57.39183,-31.68029zM189.6226,86.54688c0,17.50451 -25.68284,31.68029 -57.39183,31.68029c-1.83654,0 -3.70177,-0.14348 -5.50962,-0.22957c-0.08609,0.54522 -0.11478,1.29131 -0.22957,1.83654c0.37305,1.11914 0.6887,2.20958 0.6887,3.44351v7.34615c1.66437,0.08609 3.32873,0.22957 5.05048,0.22957c31.70898,0 57.39183,-14.17578 57.39183,-31.68029zM189.6226,108.58534c0,17.50451 -25.68284,31.68029 -57.39183,31.68029c-1.83654,0 -3.70177,-0.14348 -5.50962,-0.22957c-0.08609,0.54522 -0.11478,1.29131 -0.22957,1.83654c0.37305,1.09045 0.6887,2.20958 0.6887,3.44351v7.34615c1.66437,0.08609 3.32873,0.22957 5.05048,0.22957c31.70898,0 57.39183,-14.17578 57.39183,-31.68029zM116.16106,123.27764c0,17.50451 -25.68284,31.68029 -57.39183,31.68029c-31.62289,0 -57.24835,-14.0323 -57.39183,-31.45072c0,6.65745 0,12.39663 0,12.39663c0,17.50451 25.68284,31.68029 57.39183,31.68029c31.70898,0 57.39183,-14.17578 57.39183,-31.68029zM116.16106,145.31611c0,17.50451 -25.68284,31.68029 -57.39183,31.68029c-31.62289,0 -57.24835,-14.0323 -57.39183,-31.45072c0,6.65745 0,12.39663 0,12.39663c0,17.50451 25.68284,31.68029 57.39183,31.68029c31.70898,0 57.39183,-14.17578 57.39183,-31.68029z"></path></g></g></g></svg>