<svg xmlns="http://www.w3.org/2000/svg" x="0px" y="0px"
width="25" height="25"
viewBox="0 0 191 191"
style=" fill:#000000;"><g fill="none" fill-rule="nonzero" stroke="none" stroke-width="1" stroke-linecap="butt" stroke-linejoin="miter" stroke-miterlimit="10" stroke-dasharray="" stroke-dashoffset="0" font-family="none" font-weight="none" font-size="none" text-anchor="none" style="mix-blend-mode: normal"><path d="M0,191.98863v-191.98863h191.98863v191.98863z" fill="none"></path><g fill="#000000"><g id="surface1"><path d="M51.42308,0c-4.41917,0 -7.34615,2.92699 -7.34615,7.34615v22.03846c0,4.41917 2.92699,7.34615 7.34615,7.34615c4.41917,0 7.34615,-2.92698 7.34615,-7.34615v-22.03846c0,-4.41917 -2.92698,-7.34615 -7.34615,-7.34615zM139.57692,0c-4.41917,0 -7.34615,2.92699 -7.34615,7.34615v22.03846c0,4.41917 2.92699,7.34615 7.34615,7.34615c4.41917,0 7.34615,-2.92698 7.34615,-7.34615v-22.03846c0,-4.41917 -2.92698,-7.34615 -7.34615,-7.34615zM22.03846,14.69231c-12.48272,0 -22.03846,9.55574 -22.03846,22.03846v132.23077c0,12.48272 9.55574,22.03846 22.03846,22.03846h146.92308c12.48272,0 22.03846,-9.55574 22.03846,-22.03846v-132.23077c0,-12.48272 -9.55574,-22.03846 -22.03846,-22.03846h-14.69231v14.69231c0,8.09225 -6.60006,14.69231 -14.69231,14.69231c-8.09224,0 -14.69231,-6.60006 -14.69231,-14.69231v-14.69231h-58.76923v14.69231c0,8.09225 -6.60006,14.69231 -14.69231,14.69231c-8.09224,0 -14.69231,-6.60006 -14.69231,-14.69231v-14.69231zM14.69231,66.11538h161.61538v102.84615c0,4.41917 -2.92698,7.34615 -7.34615,7.34615h-146.92308c-4.41917,0 -7.34615,-2.92698 -7.34615,-7.34615zM67.49279,91.13822l-16.06971,7.34615l2.29567,11.01923l11.70793,-5.96875v50.04567h14.00361v-62.44231zM120.52284,91.13822l-16.29928,7.34615l2.29567,11.01923l11.70793,-5.96875v50.04567h14.00361v-62.44231z"></path></g></g></g></svg>