<svg xmlns="http://www.w3.org/2000/svg" x="0px" y="0px"
width="30" height="30"
viewBox="0 0 191 191"
style=" fill:#626262;"><g fill="none" fill-rule="nonzero" stroke="none" stroke-width="1" stroke-linecap="butt" stroke-linejoin="miter" stroke-miterlimit="10" stroke-dasharray="" stroke-dashoffset="0" font-family="none" font-weight="none" font-size="none" text-anchor="none" style="mix-blend-mode: normal"><path d="M0,191.98863v-191.98863h191.98863v191.98863z" fill="none"></path><g fill="#626262"><path d="M127.20899,25.40449c-1.65405,0.04929 -3.22394,0.74057 -4.37708,1.92741l-63.66667,63.66667c-2.48534,2.48637 -2.48534,6.51649 0,9.00286l63.66667,63.66667c1.59687,1.66323 3.96813,2.33323 6.19928,1.75159c2.23115,-0.58164 3.97353,-2.32402 4.55517,-4.55517c0.58164,-2.23115 -0.08836,-4.60242 -1.75159,-6.19928l-59.16524,-59.16524l59.16524,-59.16523c1.88301,-1.83036 2.44919,-4.62899 1.42572,-7.04734c-1.02347,-2.41836 -3.42662,-3.96034 -6.05149,-3.88293z"></path></g></g></svg>