<svg xmlns="http://www.w3.org/2000/svg" x="0px" y="0px"
width="25" height="25"
viewBox="0 0 191 191"
style=" fill:#000000;"><g fill="none" fill-rule="nonzero" stroke="none" stroke-width="1" stroke-linecap="butt" stroke-linejoin="miter" stroke-miterlimit="10" stroke-dasharray="" stroke-dashoffset="0" font-family="none" font-weight="none" font-size="none" text-anchor="none" style="mix-blend-mode: normal"><path d="M0,191.98863v-191.98863h191.98863v191.98863z" fill="none"></path><g fill="#000000"><g id="surface1"><path d="M95.9775,7.64c-1.14898,0.01492 -2.29797,0.08953 -3.46187,0.23875c-2.34273,0.29844 -4.89437,1.05945 -6.92375,3.10375l-74.9675,74.9675c-3.89461,3.89461 -3.89461,10.31102 0,14.20562l21.72625,21.84563c0.17906,0.17906 0.38797,0.3432 0.59687,0.4775c0.05969,0.05969 0.17906,0.05969 0.23875,0.11938c0.04477,0.04477 0.07461,0.07461 0.11937,0.11938c0.10445,0.10445 0.1343,0.25367 0.23875,0.35812l57.3,57.3c3.89461,3.89461 10.31102,3.89461 14.20562,0l74.9675,-74.9675c2.01445,-2.01445 2.80531,-4.59594 3.10375,-6.92375c0.29844,-2.32781 0.23875,-4.62578 0.23875,-6.80438v-0.4775c0,-0.35813 0,-0.88039 0,-1.55188c0,-0.43273 0,-1.23852 0,-1.79062c0,-1.13406 0,-2.16367 0,-3.70063c0,-4.56609 0,-10.72883 0,-16.83187c0,-12.20609 0,-24.42711 0,-24.71062c0,-6.62531 -5.44648,-12.05688 -12.05687,-12.05688h-10.86312v-10.86312c0,-6.62531 -5.43156,-12.05687 -12.05687,-12.05687h-49.06313c-1.05945,0 -2.19352,-0.01492 -3.3425,0zM96.09688,15.28c0.96992,0 2.08906,0 3.22312,0h49.06313c2.49195,0 4.41687,1.92492 4.41687,4.41687v10.86313h-14.325c-0.14922,-0.16414 -0.31336,-0.31336 -0.4775,-0.4775c-2.22336,-2.22336 -5.17789,-3.3425 -8.1175,-3.3425c-2.93961,0 -5.89414,1.11914 -8.1175,3.3425c-0.16414,0.16414 -0.32828,0.31336 -0.4775,0.4775c-1.86523,-0.01492 -3.84984,-0.01492 -5.84937,0.23875c-2.34273,0.29844 -4.89438,1.05945 -6.92375,3.10375l-74.9675,74.9675c-0.59687,0.59688 -1.13406,1.2236 -1.55187,1.91l-15.99625,-15.99625c-0.98484,-0.98484 -0.96992,-2.49195 0,-3.46188l74.9675,-74.9675c0.40289,-0.40289 1.16391,-0.76102 2.62625,-0.955c0.73117,-0.08953 1.53695,-0.11937 2.50688,-0.11937zM119.01688,38.2h52.28625c2.49195,0 4.41688,1.92492 4.41688,4.41688c0,0.23875 0,12.50453 0,24.71063c0,6.10305 0,12.26578 0,16.83187c0,2.28305 0,4.1632 0,5.49125c0,0.67148 0,1.19375 0,1.55188c0,0.17906 0,0.2686 0,0.35813c0,0.08953 0,0.11937 0,0.11937c0,2.31289 0.07461,4.40195 -0.11938,5.84938c-0.19398,1.44742 -0.53719,2.08906 -0.955,2.50687l-74.9675,74.9675c-0.98484,0.98485 -2.49195,0.96992 -3.46187,0l-57.3,-57.3c-0.98484,-0.98484 -0.96992,-2.49195 0,-3.46188l74.9675,-74.9675c0.40289,-0.40289 1.16391,-0.76102 2.62625,-0.955c0.73117,-0.08953 1.53695,-0.11938 2.50688,-0.11938zM152.8,49.66c-2.93961,0 -5.89414,1.11914 -8.1175,3.3425c-4.44672,4.44672 -4.44672,11.78828 0,16.235c4.44672,4.44672 11.78828,4.44672 16.235,0c4.44672,-4.44672 4.44672,-11.78828 0,-16.235c-2.22336,-2.22336 -5.17789,-3.3425 -8.1175,-3.3425zM152.8,57.3c0.96992,0 1.98461,0.31336 2.74563,1.07438c1.52203,1.52203 1.52203,3.96922 0,5.49125c-1.52203,1.52203 -3.96922,1.52203 -5.49125,0c-1.52203,-1.52203 -1.52203,-3.96922 0,-5.49125c0.76102,-0.76102 1.7757,-1.07438 2.74562,-1.07438z"></path></g></g></g></svg>