<svg xmlns="http://www.w3.org/2000/svg" width="16" height="14" viewBox="0 0 16 14">
  <defs>
    <style>
      .cls-1 {
        fill: #fff;
        fill-rule: evenodd;
      }
    </style>
  </defs>
  <path id="Next" class="cls-1" d="M213.969,491.5s-6.344,4.656-6.969,5.094a1.731,1.731,0,0,1-1,.406,1,1,0,0,1-1-1V484a1,1,0,0,1,1-1,1.731,1.731,0,0,1,1,.406c0.625,0.438,6.969,5.094,6.969,5.094A2.318,2.318,0,0,1,215,490h0A2.318,2.318,0,0,1,213.969,491.5ZM216,483h4a1,1,0,0,1,1,1v12a1,1,0,0,1-1,1h-4a1,1,0,0,1-1-1V484A1,1,0,0,1,216,483Z" transform="translate(-205 -483)"/>
</svg>
