<svg xmlns="http://www.w3.org/2000/svg" width="10" height="10" viewBox="0 0 22 22">
  <defs>
    <style>
      .cls-1 {
        fill: black;
        fill-rule: evenodd;
      }
    </style>
  </defs>
  <path id="Play" class="cls-1" d="M195,490.975h0a2.483,2.483,0,0,1-1.621,2.156s-16.156,7.693-17.236,8.281a3.2,3.2,0,0,1-1.572.539A1.57,1.57,0,0,1,173,500.383V481.568A1.57,1.57,0,0,1,174.571,480a3.2,3.2,0,0,1,1.572.539c1.08,0.588,17.236,8.281,17.236,8.281A2.483,2.483,0,0,1,195,490.975h0Z" transform="translate(-173 -480)"/>
</svg>
