<svg xmlns="http://www.w3.org/2000/svg" width="20" height="18" viewBox="0 0 20 18">
  <defs>
    <style>
      .cls-1 {
        fill: #3e4a43;
        fill-rule: evenodd;
      }
    </style>
  </defs>
  <path id="Shuffle" class="cls-1" d="M581.134,489.335a1.223,1.223,0,0,1-1.362.279,1.289,1.289,0,0,1-.772-1.19v-1.287h-6.25v10.3h-7.5a1.269,1.269,0,0,1-1.25-1.287v-1.288h6.25v-10.3H579v-1.288h0a1.289,1.289,0,0,1,.772-1.19,1.226,1.226,0,0,1,1.362.279l2.5,2.576a1.314,1.314,0,0,1,0,1.82Zm-15.884-2.2H564v-1.288a1.269,1.269,0,0,1,1.25-1.287h2.5v2.575h-2.5Zm11.25,7.726H579v-1.287a1.289,1.289,0,0,1,.772-1.19,1.223,1.223,0,0,1,1.362.279l2.5,2.576a1.314,1.314,0,0,1,0,1.82l-2.5,2.576a1.226,1.226,0,0,1-1.362.279,1.289,1.289,0,0,1-.772-1.19h0v-1.287h-2.5A1.288,1.288,0,0,1,576.5,494.863Z" transform="translate(-564 -482)"/>
</svg>
