<svg xmlns="http://www.w3.org/2000/svg" width="26" height="18.969" viewBox="0 0 26 18.969">
  <defs>
    <style>
      .cls-1 {
        fill: #3e4a43;
        fill-rule: evenodd;
      }
    </style>
  </defs>
  <path class="cls-1" d="M536.108,492.311l3.414,3.4A1.568,1.568,0,0,1,540,496.83a1.536,1.536,0,0,1-1.575,1.568,1.58,1.58,0,0,1-1.125-.474l-3.387-3.372-3.413,3.4a1.536,1.536,0,0,1-1.145.467,1.564,1.564,0,0,1-1.131-.467,1.492,1.492,0,0,1-.457-1.113,1.555,1.555,0,0,1,.484-1.126l3.413-3.4-3.414-3.4a1.517,1.517,0,0,1-.456-1.1,1.489,1.489,0,0,1,.456-1.113,1.605,1.605,0,0,1,2.223,0l3.413,3.4,3.415-3.4a1.457,1.457,0,0,1,1.1-.435,1.588,1.588,0,0,1,1.124.488,1.521,1.521,0,0,1,0,2.16Zm-11.62,9.463-4.6-3.749a2.925,2.925,0,0,1-.949-2v-7.054a2.93,2.93,0,0,1,.949-2l4.6-3.748c0.522-.426.949-0.224,0.949,0.448v17.646C525.437,502,525.01,502.2,524.488,501.774Zm-7.459-4.888-1.816-.351a1.546,1.546,0,0,1-1.2-1.454v-5.157a1.546,1.546,0,0,1,1.2-1.454l1.816-.35a0.975,0.975,0,0,1,1.205.99V495.9A0.976,0.976,0,0,1,517.029,496.886Z" transform="translate(-514 -483)"/>
</svg>
