<svg xmlns="http://www.w3.org/2000/svg" width="18" height="18" viewBox="0 0 18 18">
  <defs>
    <style>
      .cls-1 {
        fill: #3e4a43;
        fill-rule: evenodd;
      }
    </style>
  </defs>
  <path id="Share" class="cls-1" d="M671,494.5v3.375A1.125,1.125,0,0,1,669.875,499h-15.75A1.125,1.125,0,0,1,653,497.875v-15.75A1.125,1.125,0,0,1,654.125,481h7.356a4.487,4.487,0,0,0-.606,2.25H655.25v13.5h13.5v-3.375h0v-0.281l2.25-1.688V494.5h0Zm-4.95-3.6a1.131,1.131,0,0,1-.675.225A1.126,1.126,0,0,1,664.25,490v-1.125a7.876,7.876,0,0,0-7.545,5.625h0a7.884,7.884,0,0,1-.33-2.25h0a7.875,7.875,0,0,1,7.875-7.875V483.25a1.125,1.125,0,0,1,1.8-.9l4.5,3.375a1.125,1.125,0,0,1,0,1.8Z" transform="translate(-653 -481)"/>
</svg>
