<svg xmlns="http://www.w3.org/2000/svg" width="16" height="14" viewBox="0 0 16 14">
  <defs>
    <style>
      .cls-1 {
        fill: #fff;
        fill-rule: evenodd;
      }
    </style>
  </defs>
  <path id="Previous" class="cls-1" d="M153.031,488.5s6.344-4.656,6.969-5.094a1.731,1.731,0,0,1,1-.406,1,1,0,0,1,1,1v12a1,1,0,0,1-1,1,1.731,1.731,0,0,1-1-.406c-0.625-.438-6.969-5.094-6.969-5.094A2.318,2.318,0,0,1,152,490h0A2.318,2.318,0,0,1,153.031,488.5ZM151,497h-4a1,1,0,0,1-1-1V484a1,1,0,0,1,1-1h4a1,1,0,0,1,1,1v12A1,1,0,0,1,151,497Z" transform="translate(-146 -483)"/>
</svg>
