<svg xmlns="http://www.w3.org/2000/svg" x="0px" y="0px"
width="24" height="24"
viewBox="0 0 191 191"
style=" fill:#000000;"><g fill="none" fill-rule="nonzero" stroke="none" stroke-width="1" stroke-linecap="butt" stroke-linejoin="miter" stroke-miterlimit="10" stroke-dasharray="" stroke-dashoffset="0" font-family="none" font-weight="none" font-size="none" text-anchor="none" style="mix-blend-mode: normal"><path d="M0,191.98863v-191.98863h191.98863v191.98863z" fill="none"></path><g fill="#000000"><path d="M143.25,31.83333c-4.393,0 -7.95833,3.56533 -7.95833,7.95833v111.41667c0,4.393 3.56533,7.95833 7.95833,7.95833h23.875c4.393,0 7.95833,-3.56533 7.95833,-7.95833v-111.41667c0,-4.393 -3.56533,-7.95833 -7.95833,-7.95833zM87.54167,63.66667c-4.393,0 -7.95833,3.56533 -7.95833,7.95833v79.58333c0,4.393 3.56533,7.95833 7.95833,7.95833h23.875c4.393,0 7.95833,-3.56533 7.95833,-7.95833v-79.58333c0,-4.393 -3.56533,-7.95833 -7.95833,-7.95833zM31.83333,95.5c-4.393,0 -7.95833,3.56533 -7.95833,7.95833v47.75c0,4.393 3.56533,7.95833 7.95833,7.95833h23.875c4.393,0 7.95833,-3.56533 7.95833,-7.95833v-47.75c0,-4.393 -3.56533,-7.95833 -7.95833,-7.95833z"></path></g></g></svg>